<svg xmlns="http://www.w3.org/2000/svg" width="1280" height="1280" viewBox="0 0 960 960" preserveAspectRatio="xMidYMid meet" xmlns:v="https://vecta.io/nano"><path d="M467.8.5c-.2.3-2.2.7-4.4 1-3.9.6-8.4 1.9-13.9 3.9-1.6.6-3.2 1.1-3.5 1.1s-2.7 1.1-5.5 2.4c-26.2 12.7-44.4 36.4-50.3 65.6-.8 4-.9 26-.1 30.5 1.1 5.9 4.9 18 6.9 21.5 1 1.8 1.7 3.5 1.4 3.8-.2.2.2 1 1.1 1.7.8.7 1.5 1.9 1.5 2.6 0 .8.3 1.4.8 1.4.4 0 1.3 1.5 2.1 3.2 1.7 3.9 20.3 22.6 24.6 24.8 1.7.8 3.2 1.7 3.5 2 .5.5 3.1 2 6.8 3.9 3.4 1.8 10.8 4.8 13.7 5.6 1.7.5 3.3.9 3.8 1 .4.2.8.3 1 .5s1 .3 10.7 1.8c6.5.9 23.3.9 26.7-.2 1-.3 3.2-.8 4.9-1 24.9-4.2 52.5-26.3 63.1-50.5l3.3-7.6c1.5-3.3 3.9-13.8 3.4-14.6-.2-.4 0-1 .5-1.3 1.4-.9 1.1-23.9-.4-30.2-.7-3-1-5.4-.7-5.4s.1-.5-.6-1.2-1.2-2-1.2-3c0-2.7-7.3-17.9-11.8-24.4-4.9-7.2-13.8-16.4-21.3-21.9-5.7-4.2-21-12.2-24.5-12.8-1.1-.2-3.9-.9-6.4-1.6l-6.5-1.8C494 .7 468.3 0 467.8.5zm270.9 261.2c-.3.5-.6 31.2-.6 68.3l-.6 73.5c-1 11.7-1.6 15.4-3.7 25.5-.7 3-1.2 5.7-1.3 6-.2.8-2.6 8.4-3.2 10l-.9 2.5c-.1.5-1 2.8-2 5s-1.8 4.2-1.9 4.5c-.1.6-5.8 11.3-8.3 15.5-3.7 6.5-12.5 17.3-19.4 24-9.9 9.5-12.4 11.5-21.9 18-8.5 5.7-29.9 17.1-29.9 15.9 0-.3-.6-.2-1.2.3-3.3 2.6-29.9 10.8-41.3 12.8-1.6.2-3.9.7-5 .9-1.2.2-4.8.7-8 1.1-3.3.4-6.8.9-7.7 1.1-1 .1-2-.1-2.3-.5-.2-.5-.5-42.4-.6-93.2 0-101 .2-97.1-6.1-115.4-1.7-5-4.6-11.6-6.4-14.8-1.9-3.2-3.4-6.1-3.4-6.4 0-1.1-10.3-13.9-13.9-17.1-13.2-12.3-30.9-21.5-45.6-23.8-2.2-.3-4.3-.8-4.7-1-2.3-1.5-25.7-2.1-35.8-1-13.1 1.4-30.3 6.8-37 11.6-1.6 1.1-3.2 2-3.7 2-.4 0-2.5 1.6-4.6 3.5s-4.1 3.5-4.5 3.5c-.3 0-1.7 1.2-3 2.7-1.3 1.6-3.8 4.4-5.6 6.3-4.8 5.3-15.4 23-16.1 27 0 .3-1.1 3.4-2.3 7-1.9 5.9-3.3 11.1-4.8 18-.3 1.4-.7 13.1-.9 26l-.6 24c-.1.3 0 .9.1 1.5.1.7.1 29.9-.1 46V470v18c0 .8 0 3.5.1 6 .2 8.3-.9 55.5-1.4 58.5-2.3 13.6-3.3 19-3.6 19-.1 0-.3.9-.5 2-1.6 8.3-14.4 38.3-17.3 40.5-.4.3-1.9 2.3-3.4 4.5-3.9 5.9-6.5 9.1-14.3 17.1-7.2 7.4-25 21.4-27.2 21.4-.7 0-1.3.4-1.3.8 0 .5-1.8 1.7-4 2.8-2.2 1-4 2.2-4 2.6 0 .5-.5.8-1.1.8-.7 0-4.8 1.7-9.3 3.9-12.5 6-37 13.8-48.6 15.5l-7.5 1.3c-2.2.4-5 .7-6.2.7-1.3.1-2.3.3-2.3.6 0 1-7 .6-7-.4-.1-.6-.1-96.2-.1-212.4l-1-211c-3.8 1.3-39.6 37.3-48 48.3-1.3 1.6-2.6 3.2-3 3.5-2.8 2.2-28.7 38.8-31.2 44-.4.8-1.5 2.8-2.6 4.5-16.4 26.6-32.2 64.1-41.6 98.5-2.3 8.4-6.6 27.7-7 31.5-.1 1.6-.5 3.7-.8 4.5-.8 2.2-1.9 8.8-2.3 14-.2 2.5-.6 5.9-.9 7.6-2 12.8-2.7 63.7-1.1 78.4.3 3.6.9 9 1.2 12 1 8.8 1.1 9.9 3.3 22 2.2 12.7 4.2 22.2 6.2 29l1.5 6c.1.8 1.2 4.6 2.4 8.5l2.5 8.5c.6 2.7 8.4 23.9 9.2 25.2a8.95 8.95 0 0 1 .9 2.6c.2.8.9 2.8 1.7 4.5l4.2 9.2c4.7 10.6 10.9 22.9 13.4 27 1.4 2.2 2.6 4.2 2.6 4.5.1 1.1 6.9 12.5 7.7 12.8.4.2.8.8.8 1.2 0 1.4 12.3 20 13.2 20 .4 0 .8.6.8 1.3s.8 2.2 1.8 3.3c.9 1 3.7 4.6 6.2 7.9 4.2 5.7 5.4 7.1 9.3 11.8l6 7.2c5.8 7 34 35.1 41.2 41.1 3.3 2.7 6.6 5.5 7.3 6.2.8.7 3 2.5 5 4 2.1 1.5 4.8 3.7 6.2 4.9 1.4 1.3 2.8 2.3 3.2 2.3.3 0 1.3.6 2 1.3s6 4.5 11.8 8.5c5.8 3.9 11 7.5 11.5 8 .6.4 1.7 1.1 2.5 1.5s3.3 1.8 5.5 3.1c10.2 6.3 41.2 22.6 43 22.6.2 0 2.8 1 5.7 2.3 6.8 3 21 8.7 22.8 9.2.3 0 3.7 1.2 7.5 2.5l7.5 2.5c4.2 1.1 6.7 2 7.8 2.8.6.5 1.2.7 1.2.4s2.9.3 6.5 1.3 6.5 1.6 6.5 1.3.6 0 1.4.6 1.8 1.1 2.2 1c.5-.1 1.1 0 1.4.1s1.2.3 2 .5c.8.1 4.2.8 7.5 1.6l7.5 1.6c.8.1 3 .5 4.9.8 1.8.2 4.1.7 5 .9.9.3 3.7.7 6.3 1s5.8.8 7 1c2.4.5 7.5 1.1 19.9 2.3 9.8.9 56.4 1 65.9 0 4.1-.3 10.1-.9 13.3-1.2s7-.7 8.5-1c2.5-.5 9.2-1.5 13.7-2.1 1.1-.1 2-.3 2-.4s1.1-.3 2.5-.5c4.9-.7 20.4-4 28.5-6.1 3.3-.9 6.7-1.8 7.5-1.9.8-.2 1.6-.4 1.8-.5.1-.2.5-.3 1-.4 6.6-1.8 23.8-7.3 26.7-8.6 1.1-.6 6.1-2.5 11-4.4 16.2-6.1 52.5-23.8 52.5-25.6 0-.4 1.2-1.1 2.6-1.4 1.4-.4 3.1-1.1 3.7-1.7.7-.5 3.7-2.5 6.7-4.4s6.9-4.3 8.5-5.5c4.1-2.8 18.8-13.3 20-14.2.6-.5 3.5-2.7 6.5-5l6-4.8c.3-.3 3.7-3.2 7.5-6.5 3.9-3.2 10.7-9.5 15.3-13.9 4.5-4.4 8.6-8.2 9-8.5.7-.6 16.5-18.1 21.2-23.7 1.4-1.6 4.8-5.8 7.5-9.4 2.8-3.6 5.3-6.7 5.8-6.8.4-.2.7-.8.7-1.4 0-.5.7-1.7 1.6-2.5 3.5-3.5 20-29.2 27.3-42.5 3.5-6.5 16.1-31.6 16.1-32.2 0-.2.8-2.1 1.7-4.2.9-2.2 1.8-4.4 1.9-4.9.2-.6 1.4-3.7 2.7-7l4.2-10.5 2.9-9 3.1-10c.2-.8.8-2.6 1.3-4s1-2.8 1.1-3.3c0-.4.1-.8.2-1 .1-.3.7-3 1.2-5.2.3-1.1 1.2-4.7 2-8 .9-3.3 2-8.5 2.6-11.5l1.6-8c.3-1.4.8-4.5 1.1-7s.7-5.2.9-6c.4-1.4.7-3.5 2-14 2.7-21.3 2.7-72 0-89.5l-2.1-15.5c-.2-1.9-.7-4.6-1-6-.3-1.3-.8-4-1.1-6-1-6.7-1.1-7.5-1.3-7.5-.1 0-.3-.8-.5-1.9-.2-1-.9-4-1.5-6.6l-1.5-6.6c-.2-1.1-.4-1.9-.5-1.9s-.3-.7-.5-1.5c-1.4-7.1-10-34.5-13-41.5l-4.9-12c-4.4-10.6-18.5-39.4-20.3-41.3-.7-.7-1.6-2.4-1.9-3.8-.3-1.3-1-2.4-1.5-2.4s-.9-.7-.9-1.5-.4-1.5-.9-1.5-1.1-.8-1.4-1.8c-.7-2.2-3.7-7.1-5.9-9.6-1-1.1-2.1-2.9-2.4-4-.4-1.1-1.7-3.1-3-4.5s-2.4-3.2-2.4-3.9-.7-1.5-1.5-1.8-1.7-1.4-2-2.5c-.4-1-1.2-2.5-1.8-3.1-1.1-1.1-6.9-8.5-8.9-11.3-.4-.6-3.6-4.4-7.1-8.5l-8.8-10.4c-3.3-3.9-22.5-23.1-28.5-28.5l-8-7.4c-1.8-1.6-3.4-2.5-3.7-2z"/></svg>